<!--?xml version="1.0" standalone="no"?-->
              <svg id="sw-js-blob-svg" viewBox="0 0 100 100" xmlns="http://www.w3.org/2000/svg" version="1.1">
                    <defs> 
                        <linearGradient id="sw-gradient" x1="0" x2="1" y1="1" y2="0">
                            <stop id="stop1" stop-color="rgba(14.193, 14.554, 14.87, 1)" offset="0%"></stop>
                            <stop id="stop2" stop-color="rgba(0, 136, 255, 1)" offset="100%"></stop>
                        </linearGradient>
                    </defs>
                <path fill="url(#sw-gradient)" d="M25.6,-28.6C33.7,-23.7,41.2,-16.1,42.1,-8C42.9,0.2,37,9.1,30.9,16.1C24.8,23.1,18.5,28.2,10.6,32.6C2.7,37,-6.7,40.6,-14.9,38.6C-23.1,36.6,-30.1,29,-32.4,20.8C-34.7,12.6,-32.2,3.7,-31.4,-6.3C-30.5,-16.2,-31.3,-27.3,-26.4,-32.8C-21.4,-38.3,-10.7,-38.2,-1,-37.1C8.7,-35.9,17.5,-33.6,25.6,-28.6Z" width="100%" height="100%" transform="translate(50 50)" stroke-width="0" style="transition: all 0.3s ease 0s;"></path>
              </svg>